PathFileType	4	(X/Y/Z)	C:/Users/beibeiliu/ov580/test_trc/capture2\sequence.37_training_dense_right.trc
DataRate	CameraRate	NumFrames	NumMarkers	Units	OrigDataRate	OrigDataStartFrame	OrigNumFrames
120	120	20	19	mm	120	324	370
Frame#	Time	ThumbCMC			ThumbMCP			ThumbIP			ThumbTip			IndexMCP			IndexPIP			IndexTip			MiddleMCP			MiddlePIP			MiddleTip			RingMCP			RingPIP			RingTip			PinkyMCP			PinkyPIP			PinkyTip			BackHand1			BackHand2			BackHand3	
		X0	Y0	Z0	X1	Y1	Z1	X2	Y2	Z2	X3	Y3	Z3	X4	Y4	Z4	X5	Y5	Z5	X6	Y6	Z6	X7	Y7	Z7	X8	Y8	Z8	X9	Y9	Z9	X10	Y10	Z10	X11	Y11	Z11	X12	Y12	Z12	X13	Y13	Z13	X14	Y14	Z14	X15	Y15	Z15	X16	Y16	Z16	X17	Y17	Z17	X18	Y18	Z18	
323	2.69167	150.347	37.0373	30.6409	136.964	42.9705	2.95112	131.168	46.5748	-19.5124	124.985	38.6315	-45.6633	154.336	6.47589	-38.8447	126.983	10.8357	-54.9016	103.188	25.8312	-37.0876	149.853	-12.5102	-39.1703	121.346	-2.42133	-57.9439	96.6042	12.1031	-42.4044	141.682	-28.89	-31.1433	116.757	-17.6223	-50.0387	94.3294	-1.46795	-34.7428	131.511	-42.6563	-18.7426	113.515	-31.6335	-38.3753	91.4278	-7.93853	-29.5984	160.524	-25.2714	19.7992	161.708	-21.1913	47.5204	172.819	4.79502	31.1547	
324	2.7	150.059	37.0482	27.7502	137.35	45.8669	0.928136	130.508	45.7177	-22.4519	124.733	38.6709	-46.4567	154.827	8.58143	-39.3094	126.936	13.4644	-56.7979	100.787	25.5192	-38.0132	148.659	-10.4278	-40.8659	120.024	-2.65023	-57.6378	96.4544	11.057	-43.0472	141.481	-28.2668	-32.9522	115.35	-22.9972	-49.674	94.9663	-0.0223039	-35.9277	133.188	-39.0722	-20.1777	111.558	-32.5623	-37.4538	93.5001	-11.4709	-30.3282	156.621	-27.7818	21.8996	159.954	-21.6098	47.9133	170.593	5.18365	25.8687	
325	2.70833	150.014	37.9483	31.3729	136.562	46.0828	2.24361	130.492	47.9699	-23.1803	124.691	38.5198	-47.726	153.812	9.43268	-41.3054	128.625	9.50077	-55.6642	102.458	22.8867	-40.5889	147.946	-8.90855	-42.2149	120.362	-2.56403	-57.3121	95.1142	10.2174	-41.37	141.882	-25.3318	-32.9139	118.724	-20.4232	-49.9313	93.5684	-0.687205	-33.0183	131.266	-41.709	-20.1984	111.408	-31.5734	-38.3436	94.194	-6.60538	-27.272	158.526	-26.1628	19.1174	159.148	-22.1192	46.8036	171.886	6.25105	25.8463	
326	2.71667	150.237	39.9396	31.8792	135.588	44.0433	2.08114	131.259	44.5039	-25.3402	125.391	35.7069	-45.2271	151.567	4.92311	-40.4916	128.488	8.86795	-55.5044	103.338	24.7395	-43.0055	148.608	-11.0359	-39.0542	118.165	-4.72361	-56.8212	93.5106	12.5523	-40.7691	141.307	-27.1781	-30.6979	114.705	-23.4581	-50.072	93.6228	-1.17945	-35.0249	131.432	-42.1748	-20.4972	110.058	-30.5027	-38.0631	91.7898	-9.02057	-30.8136	158.779	-24.1319	19.835	159.692	-23.1024	49.7563	170.361	2.34114	30.4966	
327	2.725	149.586	34.9623	28.9411	136.024	48.6242	4.55314	130.492	46.5802	-20.2229	124.119	35.8575	-46.0259	154.888	8.66771	-38.6716	128.039	10.8871	-55.8474	102.072	26.6765	-41.2234	146.862	-11.9454	-41.1762	122.477	-4.65705	-57.8128	93.252	12.0024	-38.3405	139.427	-29.0196	-33.3335	117.809	-19.6352	-50.7552	94.4687	0.138505	-35.5461	131.037	-41.3898	-19.3148	110.042	-32.482	-37.5008	92.9714	-5.8893	-27.0586	157.725	-28.2571	20.33	162.033	-19.6641	47.8995	171.146	2.62432	27.2146	
328	2.73333	149.785	37.1396	29.9893	135.914	44.0513	4.13789	131.039	48.658	-20.1786	124.067	43.7665	-46.6854	155.219	10.3089	-38.5176	128.364	13.3816	-56.7797	103.358	26.8819	-41.8309	148.23	-11.6641	-40.5045	119.979	-0.492016	-57.4299	93.9082	12.4913	-40.0428	141.566	-24.776	-35.9537	115.666	-21.5056	-49.7965	93.2645	2.58462	-32.323	132.827	-37.6694	-17.598	111.227	-28.8866	-38.502	93.5393	-8.59964	-32.1899	158.308	-25.2314	21.2148	158.468	-22.3772	48.6367	169.891	4.90439	27.4284	
329	2.74167	151.265	36.7561	30.8089	136.202	45.5288	4.98439	132.668	52.976	-22.3204	126.322	44.0816	-44.3547	155.698	7.67337	-36.8021	128.703	14.004	-57.3963	101.497	25.6633	-39.8291	147.04	-10.9303	-43.0051	119.15	-1.85744	-57.294	95.6714	16.6859	-40.4977	140.493	-28.2512	-30.6401	112.953	-21.2191	-49.4189	95.3669	0.552575	-36.8442	131.568	-41.1091	-17.6413	109.002	-34.8499	-37.8133	94.4148	-7.46698	-29.3585	159.325	-23.7185	20.6626	160.12	-22.954	48.3921	173.675	6.27551	29.174	
330	2.75	152.445	35.6804	26.1428	138.888	48.3961	3.22617	133.926	50.9441	-20.3949	127.806	50.1183	-48.5153	155.01	7.15594	-38.0414	128.367	12.8566	-56.3551	103.573	25.6745	-43.9783	149.72	-9.0907	-43.5412	123.092	-3.26415	-58.1784	95.7304	11.9377	-41.4898	141.14	-27.8329	-35.3573	115.561	-16.0891	-51.9721	95.1697	2.90176	-34.9423	132.005	-41.9357	-16.4503	112.085	-33.8387	-38.1571	94.3036	-7.48748	-31.4922	158.902	-23.6392	21.1228	159.12	-23.7649	47.5926	172.001	5.94418	29.6298	
331	2.75833	152.408	40.6677	31.0282	138.782	48.3271	0.641719	134.535	52.3012	-24.4105	130.012	55.3372	-46.2367	155.251	9.86915	-42.9262	128.393	16.0429	-58.1717	103.241	21.4489	-45.872	150.576	-8.17308	-43.2618	120.391	-3.90595	-57.0692	96.259	13.5531	-41.1068	142.829	-26.7918	-31.7415	118.101	-20.4246	-50.9452	95.3349	-1.68823	-37.3018	133.971	-39.6889	-20.4296	113.396	-33.1285	-39.5246	94.1138	-10.6364	-32.9925	159.346	-27.9032	19.7567	158.019	-21.868	51.1056	170.5	3.54288	26.4399	
332	2.76667	151.019	35.4396	29.752	137.148	48.7053	6.44773	135.211	54.7961	-22.1464	130.505	55.4939	-46.5718	157.082	10.0516	-41.2197	131.008	9.95012	-57.0595	103.527	19.7685	-46.5046	150.314	-8.82673	-42.0335	122.253	-3.53272	-58.5287	93.8599	11.7545	-37.7915	142.212	-29.2356	-34.7708	117.264	-22.1011	-49.7398	96.0666	1.91076	-35.8844	132.979	-42.6104	-21.915	112.73	-30.7412	-39.4591	92.3691	-8.8333	-27.7303	160.714	-29.3525	17.1665	159.626	-21.7713	49.5855	171.051	3.78827	30.7019	
333	2.775	151.413	37.5934	30.3376	138.751	46.6711	4.23808	134.738	55.907	-18.8379	131.383	57.9349	-40.7507	157.163	8.93871	-38.5316	135.439	13.4267	-57.9995	103.519	23.9906	-47.92	150.555	-12.3677	-40.5195	122.402	-3.64232	-58.3095	95.7747	9.50363	-39.3803	141.819	-28.6585	-36.3312	115.638	-20.5411	-50.2547	95.6971	-2.11573	-35.774	135.253	-38.742	-20.828	115.74	-34.3516	-38.1068	91.3034	-7.44934	-29.048	160.044	-28.8427	18.841	161.197	-21.3823	49.0143	173.514	2.89339	26.2692	
334	2.78333	151.858	35.4342	28.8326	138.223	46.6244	5.67656	135.529	55.2482	-20.214	131.477	55.1856	-43.0141	159.223	9.21671	-36.8764	132.648	11.4511	-57.3763	102.889	23.4721	-47.0331	150.734	-9.52061	-40.9891	127.816	-3.12916	-58.2253	95.2145	12.7075	-40.3251	142.753	-28.0489	-30.9187	115.869	-22.9815	-49.1186	97.0048	0.303657	-36.8665	134.369	-41.4168	-16.6483	112.07	-32.1852	-38.0092	93.304	-11.121	-30.8157	158.775	-27.2287	20.4594	161.371	-18.4427	51.6261	173.838	4.5954	30.9177	
335	2.79167	153.428	39.9102	28.3524	139.035	47.6238	5.34242	136.959	57.6225	-19.8664	132.564	59.6281	-38.102	156.62	8.64143	-39.8174	133.314	8.31802	-55.9213	105.046	25.8647	-48.2121	149.855	-13.3445	-36.5338	123.712	-5.3735	-56.2441	94.7454	11.4511	-39.41	142.627	-25.526	-32.2822	117.608	-18.9243	-49.8005	93.0571	1.38048	-33.3523	134.978	-38.5613	-14.5241	112.939	-33.8225	-36.0348	93.6901	-10.5036	-33.5256	161.44	-24.6135	24.1539	162.013	-19.7249	52.7692	172.757	7.80954	31.618	
336	2.8	152.475	34.2408	30.0724	139.586	51.2034	8.76466	135.966	53.2735	-18.4579	132.327	58.4353	-38.6364	157.286	5.85508	-33.6934	135.618	12.2399	-56.7921	103.843	22.4977	-46.384	151.185	-11.3467	-36.3108	126.942	-5.17613	-56.262	94.8215	12.6788	-38.0189	143.13	-26.4734	-31.3274	118.253	-22.647	-48.6342	96.3873	-0.69176	-35.832	134.111	-38.6808	-16.6074	112.549	-31.3348	-36.6804	96.7153	-8.66305	-31.4195	159.737	-27.0505	21.2532	160.311	-22.3352	49.2272	172.795	4.16618	32.061	
337	2.80833	152.679	39.1905	32.0113	139.709	50.1602	5.39067	136.402	56.0727	-17.6517	132.582	60.4089	-41.7574	157.783	9.60568	-39.243	132.408	10.7474	-56.3474	106.959	23.7805	-49.3352	149.106	-12.9085	-39.5869	126.624	-2.64079	-57.238	98.1217	10.7449	-42.2684	141.703	-29.984	-29.4583	117.886	-23.4079	-48.1757	95.8302	1.41414	-35.231	134.668	-38.7967	-15.4102	113.734	-29.5401	-37.641	93.4842	-6.57448	-31.5782	159.856	-28.2771	24.6422	159.54	-18.3886	51.1376	170.968	5.49183	29.5984	
338	2.81667	150.486	36.1661	34.2909	139.508	50.1677	5.10351	135.47	56.9735	-19.8476	132.968	58.7074	-41.8189	156.706	6.55025	-33.979	132.929	14.9056	-57.2367	103.971	23.4769	-45.9701	148.984	-12.267	-40.4063	122.131	-3.58937	-56.6547	98.7919	15.2068	-41.4289	142.036	-29.9643	-31.1847	117.936	-19.7169	-48.5771	95.5518	0.00521028	-34.9367	133.453	-39.2708	-17.3412	111.671	-31.4542	-36.8545	95.481	-6.75286	-31.4048	161.009	-24.7626	23.9505	160.145	-18.7698	49.3686	172.819	5.33882	31.3819	
339	2.825	151.623	36.9245	30.0802	136.945	47.0675	10.6772	135.808	52.974	-18.2841	132.925	58.739	-43.6541	155.431	7.12448	-37.6076	136.391	14.2275	-55.8073	105.678	26.3755	-46.7133	149.919	-12.0212	-40.2127	125.82	-5.42299	-55.8805	96.4545	16.447	-38.3225	142.129	-29.3013	-31.3528	117.624	-21.4272	-48.1523	96.805	4.55463	-32.8157	133.203	-39.577	-15.0701	114.545	-34.0828	-37.0216	95.4583	-9.79229	-29.6553	159.558	-27.3886	23.2169	160.156	-18.8943	54.175	173.654	6.06648	31.8722	
340	2.83333	150.21	34.4148	31.6758	137.363	50.221	6.69502	135.047	58.5642	-17.2667	130.41	58.4972	-40.6427	158.452	9.86613	-35.1218	130.412	12.9457	-55.326	105.723	24.5363	-45.0872	148.603	-11.8357	-41.1094	123.328	-1.33715	-56.615	96.9736	13.8809	-38.9602	142.063	-29.0431	-30.836	116.582	-19.0147	-48.8591	98.0967	1.83875	-35.1505	133.148	-39.3169	-16.8158	113.589	-33.8441	-37.3947	93.9467	-7.28599	-27.5544	158.065	-26.5892	22.4696	157.233	-23.8933	48.4704	173.119	2.84334	28.6404	
341	2.84167	151.927	38.5026	30.2401	137.364	45.2038	5.1306	133.729	55.6176	-18.8024	129.222	54.5935	-44.0719	155.804	9.61276	-39.0171	129.101	16.8275	-55.7263	104.596	26.5722	-42.916	149.756	-6.71993	-40.918	124.386	0.885432	-56.5363	96.4167	14.5693	-33.7901	140.381	-28.1191	-30.8038	115.109	-18.0413	-47.945	95.8094	1.85511	-32.2997	131.649	-41.6986	-21.0891	113.246	-32.1561	-37.9848	97.6177	-6.62836	-27.9031	159.477	-25.8482	23.278	161.306	-20.0488	50.2326	170.448	2.15738	29.1035	
342	2.85	152.052	38.849	27.6908	135.893	44.8514	5.06835	131.253	49.2339	-21.4628	127.47	49.7966	-45.5308	155.072	9.58065	-36.1408	130.743	16.0137	-54.9947	103.072	28.2876	-38.7019	148.558	-6.48912	-43.1766	122.328	-0.417205	-55.2665	97.5842	16.881	-35.2223	139.016	-26.0258	-35.9757	114.632	-17.3899	-48.1413	97.0869	6.22338	-28.4506	131.642	-42.3389	-20.0668	111.481	-27.6878	-38.4388	94.2081	-5.46191	-23.3211	159.53	-29.2851	18.2128	158.744	-21.5039	49.5959	171.718	1.45724	31.0914	
